<?xml version="1.0" standalone="no"?>
<!DOCTYPE svg PUBLIC "-//W3C//DTD SVG 20010904//EN"
 "http://www.w3.org/TR/2001/REC-SVG-20010904/DTD/svg10.dtd">
<svg version="1.0" xmlns="http://www.w3.org/2000/svg"
 width="700.000000pt" height="700.000000pt" viewBox="0 0 700.000000 700.000000"
 preserveAspectRatio="xMidYMid meet">
<metadata>
Created by potrace 1.14, written by Peter Selinger 2001-2017
</metadata>
<g transform="translate(0.000000,700.000000) scale(0.100000,-0.100000)"
fill="#000000" stroke="none">
<path d="M3278 6995 c-1 -1 -41 -6 -88 -9 -47 -4 -101 -9 -120 -12 -37 -5
-153 -22 -205 -30 -158 -25 -552 -139 -670 -193 -11 -6 -54 -24 -95 -42 -172
-73 -444 -224 -581 -322 -31 -23 -67 -49 -79 -57 -141 -95 -394 -324 -551
-501 -407 -455 -699 -1029 -814 -1604 -8 -38 -16 -79 -18 -90 -3 -11 -8 -40
-12 -65 -3 -25 -9 -58 -11 -74 -3 -16 -7 -50 -9 -75 -3 -25 -8 -82 -12 -126
-10 -99 -10 -507 0 -595 3 -36 9 -92 13 -125 17 -183 86 -485 159 -700 239
-711 716 -1337 1345 -1768 58 -40 114 -77 125 -83 11 -6 56 -33 100 -59 81
-48 376 -195 392 -195 5 0 27 -9 49 -19 71 -34 392 -137 484 -155 14 -3 59
-12 100 -21 41 -9 84 -18 95 -20 33 -6 97 -16 140 -21 22 -3 51 -7 65 -10 160
-25 680 -25 842 1 13 2 43 6 68 9 25 3 72 11 105 17 33 5 74 12 90 15 80 14
294 70 412 109 1045 345 1873 1169 2224 2216 35 105 105 367 114 429 2 14 6
34 9 46 2 12 7 45 11 75 4 30 8 56 10 59 2 3 6 39 10 80 4 41 9 89 12 105 8
55 10 539 2 605 -4 36 -10 90 -13 120 -68 620 -318 1231 -713 1737 -148 191
-353 403 -513 533 -30 25 -57 48 -60 51 -31 35 -269 199 -416 287 -359 213
-810 376 -1214 438 -25 3 -52 8 -60 9 -8 2 -44 6 -80 10 -36 4 -81 10 -100 12
-42 5 -537 13 -542 8z m497 -229 c142 -15 197 -22 275 -36 30 -5 69 -12 86
-15 17 -2 84 -18 150 -35 65 -17 126 -33 134 -35 8 -2 64 -20 124 -40 930
-312 1681 -1039 2025 -1960 91 -244 150 -489 186 -765 18 -146 25 -478 12
-634 -45 -540 -217 -1056 -505 -1506 -48 -75 -169 -245 -197 -276 -5 -7 -19
-22 -29 -35 -145 -182 -373 -400 -571 -549 -99 -73 -289 -200 -301 -200 -4 0
-15 -6 -23 -14 -34 -30 -323 -169 -461 -223 -169 -65 -452 -145 -600 -168 -25
-4 -53 -9 -64 -11 -10 -2 -44 -6 -75 -10 -31 -3 -65 -8 -76 -10 -110 -23 -613
-23 -730 0 -11 2 -47 7 -80 11 -32 4 -67 8 -76 10 -9 2 -32 6 -50 9 -325 53
-698 185 -1008 358 -58 32 -106 58 -107 58 -8 0 -205 135 -289 199 -597 451
-1026 1101 -1205 1823 -16 64 -31 131 -34 150 -3 18 -7 42 -10 53 -2 11 -9 56
-15 100 -7 44 -14 94 -16 110 -10 61 -19 244 -19 370 0 233 18 428 59 635 8
41 17 84 19 95 12 61 52 203 86 305 178 537 488 1010 916 1400 100 91 119 106
240 196 379 282 790 471 1249 573 122 27 152 33 265 47 25 3 56 7 70 10 14 2
77 7 140 10 63 4 116 8 118 9 5 4 329 -3 387 -9z"/>
<path d="M3422 6548 c-426 -47 -713 -466 -606 -883 66 -255 292 -466 549 -513
50 -9 228 -9 277 1 269 51 494 277 551 553 18 86 15 229 -7 312 -90 343 -416
569 -764 530z m188 -231 c65 -17 175 -77 218 -118 161 -155 198 -367 102 -572
-29 -61 -105 -146 -169 -186 -183 -118 -420 -99 -582 46 -211 190 -216 504
-12 707 53 52 163 111 233 125 56 12 164 11 210 -2z"/>
<path d="M4898 4738 c-306 -154 -324 -165 -342 -201 -36 -74 13 -150 96 -152
l38 0 0 -276 0 -276 -117 -33 c-288 -81 -695 -228 -963 -350 -107 -48 -433
-211 -490 -244 -14 -8 -70 -41 -125 -72 -576 -329 -1179 -814 -1634 -1312
l-75 -83 -18 23 c-20 25 -161 226 -171 244 -5 8 12 10 58 6 63 -4 65 -4 100
31 26 26 35 43 35 69 -1 96 -41 119 -230 134 -105 7 -101 4 -148 111 -45 104
-102 257 -102 274 0 6 18 8 48 5 26 -3 88 -8 137 -11 50 -3 101 -8 115 -10 14
-2 56 -7 93 -10 37 -4 78 -8 90 -11 12 -2 41 -6 64 -9 63 -7 116 -16 133 -20
8 -3 33 -7 55 -10 22 -4 47 -8 55 -10 8 -3 32 -7 54 -11 21 -3 48 -7 59 -10
59 -11 125 63 113 128 -7 40 -49 85 -86 92 -14 2 -46 9 -73 15 -26 6 -64 14
-85 17 -20 3 -73 11 -117 19 -115 20 -270 39 -425 51 -47 4 -98 8 -115 9 -16
2 -63 3 -103 4 -81 1 -84 4 -97 92 -4 24 -8 46 -10 49 -1 3 -6 28 -9 55 -4 28
-9 64 -11 80 -3 17 -7 46 -10 66 l-4 36 92 -3 c99 -2 267 -12 332 -19 22 -2
65 -7 95 -10 48 -5 187 -22 245 -30 18 -3 50 -8 130 -20 17 -3 89 -17 160 -31
72 -14 141 -28 154 -31 36 -6 319 -80 372 -96 39 -12 53 -12 85 -1 85 29 105
127 37 187 -62 54 -709 195 -1093 237 -58 6 -119 13 -135 15 -27 4 -127 11
-290 20 -27 2 -83 4 -124 4 l-73 1 6 148 c6 139 13 212 22 221 4 4 179 1 239
-4 22 -2 85 -7 140 -10 55 -3 111 -8 125 -10 14 -2 54 -7 90 -10 36 -4 79 -9
95 -11 17 -2 51 -6 76 -9 25 -3 55 -7 66 -9 12 -3 43 -8 70 -12 26 -3 57 -8
68 -10 11 -3 36 -7 55 -10 330 -53 758 -169 1142 -308 120 -44 165 -38 201 24
37 62 11 130 -60 161 -209 90 -831 270 -1078 313 -16 2 -41 7 -55 10 -24 6
-186 33 -245 42 -16 2 -41 6 -55 9 -28 5 -79 12 -155 20 -27 3 -66 8 -85 10
-33 5 -61 7 -205 20 -161 13 -202 16 -368 20 -107 2 -189 0 -207 -6 -40 -14
-67 -62 -74 -134 -4 -33 -9 -73 -11 -90 -17 -109 -22 -418 -10 -550 9 -105 29
-256 40 -315 8 -40 15 -73 20 -100 11 -58 15 -74 39 -162 81 -296 210 -584
379 -848 327 -508 815 -921 1371 -1159 161 -68 413 -148 561 -177 11 -2 43 -8
70 -14 89 -17 229 -36 340 -45 86 -7 382 -7 450 0 138 14 167 17 250 30 50 8
102 17 118 20 15 3 37 7 50 9 157 28 577 173 640 221 28 21 47 83 35 117 -14
39 -63 78 -99 78 -16 0 -78 -20 -137 -44 -254 -104 -536 -176 -787 -201 -125
-12 -408 -17 -404 -7 3 8 47 46 173 148 49 41 212 158 306 221 339 226 746
422 1135 547 157 51 243 77 265 81 8 2 34 8 56 14 75 20 397 81 402 76 6 -6
-88 -117 -192 -225 -112 -117 -237 -227 -359 -314 -149 -108 -176 -133 -183
-171 -7 -40 17 -97 49 -113 59 -31 81 -26 184 44 557 376 992 966 1189 1612
20 64 38 125 40 135 2 9 6 25 8 35 6 24 44 211 50 247 6 28 20 148 31 259 7
68 7 388 0 456 -27 262 -34 288 -87 313 -43 20 -267 17 -576 -8 l-72 -6 2 178
3 178 28 -3 c38 -5 93 32 106 71 12 34 2 87 -21 114 -22 26 -646 333 -678 333
-18 0 -151 -61 -352 -162z m527 -161 l160 -82 0 -238 c0 -131 -2 -242 -5 -247
-3 -4 -32 -11 -65 -14 -51 -6 -87 -11 -140 -19 -6 -1 -11 45 -12 117 -1 66 -7
132 -14 147 -32 78 -148 84 -192 10 -14 -24 -17 -55 -17 -169 0 -78 -4 -143
-8 -146 -5 -3 -19 -7 -33 -10 -13 -2 -57 -12 -98 -20 -41 -9 -77 -14 -80 -10
-3 3 -6 139 -6 302 l-1 297 161 82 c88 45 167 82 175 82 8 0 87 -37 175 -82z
m889 -787 c4 -19 9 -117 13 -217 5 -174 5 -183 -13 -184 -11 -1 -48 -3 -84 -4
-101 -4 -313 -17 -330 -20 -8 -2 -51 -6 -95 -9 -44 -4 -91 -9 -105 -11 -14 -2
-50 -7 -80 -11 -30 -3 -57 -7 -60 -9 -3 -2 -34 -6 -70 -10 -36 -4 -67 -8 -70
-10 -3 -2 -26 -6 -50 -10 -343 -50 -814 -184 -1235 -349 -110 -44 -133 -57
-153 -86 -32 -47 -24 -103 18 -142 46 -42 93 -37 235 27 54 24 357 132 390
139 6 2 42 13 80 25 167 54 602 155 760 176 11 2 67 10 125 18 108 16 155 22
250 32 115 12 159 15 295 21 76 3 142 6 145 6 25 2 29 -5 24 -44 -9 -70 -53
-285 -71 -349 l-16 -59 -66 -1 c-78 -1 -113 -4 -201 -12 -36 -4 -92 -10 -125
-13 -33 -2 -87 -9 -120 -14 -33 -5 -82 -12 -110 -15 -27 -4 -57 -8 -65 -10 -8
-3 -33 -7 -55 -11 -250 -38 -654 -147 -955 -257 -574 -211 -1165 -554 -1640
-953 -144 -121 -181 -155 -369 -342 l-164 -163 -51 22 c-99 43 -346 186 -346
201 0 11 428 439 515 515 378 329 734 577 1149 799 146 78 170 103 162 169 -6
53 -52 95 -103 95 -42 0 -105 -31 -333 -162 -561 -322 -1047 -712 -1487 -1192
l-91 -100 -53 45 c-62 51 -67 55 -183 168 -47 45 -86 86 -86 90 0 25 429 457
590 595 58 50 110 95 115 100 19 20 250 203 349 275 132 98 347 242 476 320
100 61 130 78 245 143 69 39 428 218 495 247 263 115 287 124 528 210 264 94
659 203 900 247 12 2 34 6 50 10 55 11 258 45 287 48 17 2 64 9 105 14 88 13
159 21 255 28 39 2 84 7 100 9 17 3 102 8 190 11 88 4 162 8 164 10 9 8 19
-11 25 -46z m-174 -1307 c0 -30 -142 -319 -225 -460 0 -1 -17 -4 -35 -7 -19
-2 -57 -7 -85 -11 -318 -41 -796 -160 -1030 -255 -11 -5 -72 -28 -135 -53
-161 -63 -416 -183 -540 -254 -19 -11 -69 -40 -110 -63 -235 -133 -601 -400
-805 -588 -27 -25 -62 -56 -76 -69 l-26 -24 -144 31 c-145 30 -349 89 -349
100 0 7 253 256 326 320 343 305 737 570 1167 785 114 57 210 104 212 104 3 1
22 8 43 17 253 108 672 249 861 289 9 2 68 15 131 29 63 14 131 28 150 31 19
3 60 10 90 15 94 16 114 19 160 25 25 3 61 7 80 10 79 11 119 15 205 21 50 3
91 7 92 8 3 3 43 2 43 -1z"/>
</g>
</svg>
